<svg width="48" height="48" viewBox="0 0 48 48" fill="none" xmlns="http://www.w3.org/2000/svg">
<g id="github" class="github">
<circle id="Ellipse 4" cx="23.935" cy="23.9018" r="22.6435" stroke="url(#paint0_linear_335_173)" stroke-width="2"/>
<path id="Vector" d="M18.7198 33.1511C18.7739 33.149 18.8276 33.1458 18.8807 33.1416C18.8809 33.1464 18.881 33.1512 18.881 33.156C18.881 33.2591 18.8375 33.3307 18.7991 33.3723C18.7805 33.3756 18.7612 33.3778 18.7413 33.3788C18.7342 33.3791 18.727 33.3793 18.7198 33.3793C18.7116 33.38 18.7035 33.3806 18.6956 33.381C18.673 33.382 18.6513 33.3815 18.6305 33.3796C18.5852 33.3381 18.5343 33.2629 18.5343 33.156C18.5343 33.1553 18.5343 33.1545 18.5343 33.1538C18.5885 33.1544 18.6423 33.1537 18.6956 33.152C18.6966 33.152 18.6976 33.1519 18.6986 33.1519C18.705 33.1517 18.7115 33.1515 18.718 33.1512C18.7186 33.1512 18.7192 33.1512 18.7198 33.1511ZM13.6141 28.8426C13.6139 28.8426 13.6136 28.8426 13.5726 29.3409L13.6136 28.8426L13.5963 28.8411L13.5789 28.8409C13.3713 28.8383 13.1857 28.8523 13.0267 28.8903C12.8738 28.9269 12.6933 28.998 12.558 29.1508C12.4042 29.3245 12.3688 29.5339 12.3968 29.7124C12.4215 29.8702 12.4934 30.0005 12.5527 30.0892C12.6726 30.2689 12.8425 30.4262 12.9581 30.5247C13.02 30.5776 13.0759 30.6215 13.1166 30.6524C13.137 30.668 13.1539 30.6804 13.1662 30.6894L13.181 30.7001L13.1856 30.7034L13.1872 30.7045L13.1877 30.7049L13.188 30.7051C13.1881 30.7051 13.1882 30.7052 13.4758 30.2962L13.1882 30.7052L13.2239 30.7303L13.2635 30.7489C13.6088 30.9108 13.964 31.3548 14.2563 31.8573C14.3939 32.0938 14.5035 32.3183 14.5788 32.484C14.6162 32.5665 14.6448 32.6336 14.6637 32.6793C14.6731 32.7021 14.6801 32.7195 14.6845 32.7307L14.6861 32.7346C15.2287 34.4039 16.7738 34.9101 18.0033 35.0307C18.6326 35.0925 19.2257 35.0605 19.6578 35.0144C19.7005 35.0098 19.7416 35.0051 19.7812 35.0004C19.7828 35.5361 19.786 36.1318 19.7893 36.667C19.7907 36.8882 19.792 37.0987 19.7933 37.2903C19.7962 37.743 19.7984 38.0904 19.7984 38.2241C19.7984 38.3258 19.7626 38.4026 19.7229 38.44C19.7014 38.4602 19.6203 38.5267 19.3766 38.4888C13.5764 36.4773 9.5 30.7963 9.5 24.1362C9.5 15.7985 15.7032 9.5 23.8065 9.5C31.9266 9.5 38.5 15.8154 38.5 24.1362C38.5 30.8032 34.5379 36.4793 28.7265 38.4764C28.4866 38.5141 28.4045 38.4484 28.3814 38.4268C28.3401 38.3881 28.3044 38.3106 28.3044 38.2117C28.3044 38.045 28.3064 37.6526 28.309 37.1254C28.3104 36.8534 28.312 36.5456 28.3135 36.2142C28.318 35.2425 28.3226 34.0722 28.3226 33.0257C28.3226 31.9823 28.0963 31.1531 27.7408 30.5363C29.1567 30.3501 30.6365 30.0544 31.8202 29.2283C33.3086 28.1894 34.2379 26.3914 34.2379 23.2926C34.2379 22.3792 34.0775 21.6649 33.7718 21.0246C33.5107 20.4778 33.1526 20.005 32.743 19.5271C32.9587 18.805 33.2436 17.213 32.4868 15.2471L32.4011 15.0245L32.1742 14.951C31.7063 14.7995 31.1625 14.8925 30.6885 15.0376C30.195 15.1885 29.6813 15.4268 29.225 15.669C28.7659 15.9126 28.35 16.1684 28.0497 16.3624C27.9332 16.4377 27.8336 16.504 27.755 16.5573C26.5654 16.2385 25.301 16.0743 24.0484 16.0743C22.7956 16.0743 21.5311 16.2385 20.3414 16.5574C20.2628 16.5043 20.1631 16.4381 20.0466 16.3629C19.7463 16.1694 19.3304 15.9144 18.8715 15.6711C18.4152 15.4294 17.9017 15.1915 17.4086 15.0403C16.9348 14.895 16.3918 14.8013 15.9247 14.9503L15.6964 15.0231L15.6102 15.2466C14.8528 17.2083 15.1383 18.8048 15.3541 19.5276C14.9439 20.0124 14.6132 20.4887 14.3815 21.0424C14.1134 21.6832 13.9919 22.3931 13.9919 23.2926C13.9919 26.3748 14.8785 28.1742 16.3278 29.2192C17.4857 30.054 18.9422 30.3532 20.354 30.539C20.1402 30.9132 19.97 31.3632 19.8682 31.8876C19.468 32.0464 18.9076 32.1961 18.3299 32.1432C17.6655 32.0822 16.9265 31.751 16.3448 30.6993L16.3433 30.6966C15.8649 29.8443 15.1877 29.3799 14.634 29.1313C14.3581 29.0074 14.1112 28.9362 13.9307 28.8955C13.8402 28.8752 13.7656 28.8623 13.7115 28.8544C13.6844 28.8504 13.6623 28.8477 13.6458 28.8458L13.6254 28.8436L13.6184 28.843L13.6157 28.8427L13.6146 28.8426L13.6141 28.8426ZM15.496 31.5555C15.5223 31.5943 15.5536 31.6272 15.5868 31.6532C15.6328 31.6549 15.687 31.6474 15.7417 31.6214C15.7056 31.5696 15.67 31.5162 15.6349 31.4613C15.6331 31.4584 15.6313 31.4556 15.6295 31.4528C15.6287 31.4515 15.6279 31.4503 15.6272 31.4491L15.6202 31.4408L15.5146 31.314C15.4754 31.3467 15.4497 31.3835 15.4333 31.4187C15.4421 31.4538 15.4568 31.4901 15.4773 31.5257C15.4814 31.5328 15.4858 31.54 15.4904 31.5471C15.4922 31.5499 15.4941 31.5527 15.496 31.5555ZM16.266 32.2381C16.2661 32.238 16.2661 32.2379 16.2662 32.2378C16.2671 32.2386 16.2679 32.2395 16.2688 32.2403C16.3067 32.2764 16.345 32.3113 16.3836 32.345C16.3836 32.345 16.3837 32.3451 16.3838 32.3452C16.387 32.348 16.3902 32.3507 16.3934 32.3535C16.3946 32.3545 16.3957 32.3555 16.3969 32.3565C16.3984 32.3578 16.3998 32.3591 16.4013 32.3604C16.4429 32.3962 16.4849 32.4307 16.5272 32.4637C16.5191 32.4705 16.511 32.4766 16.5029 32.4823C16.4382 32.527 16.3708 32.5388 16.3246 32.5389C16.304 32.5237 16.2838 32.5061 16.2642 32.4861C16.2642 32.4861 16.2641 32.486 16.2641 32.486C16.2586 32.4813 16.2533 32.4766 16.2481 32.4717C16.2297 32.4544 16.2134 32.4359 16.1992 32.4167C16.1997 32.4052 16.2011 32.3923 16.2038 32.378C16.2106 32.342 16.2274 32.2902 16.266 32.2381ZM14.2657 30.0625C14.2867 30.0849 14.3135 30.1058 14.3451 30.1241L14.3544 30.106C14.3245 30.0907 14.2949 30.0762 14.2657 30.0625ZM14.3933 30.1505L14.3997 30.1298C14.4113 30.136 14.423 30.1424 14.4347 30.1489C14.4317 30.1535 14.4287 30.1581 14.4258 30.1628C14.4149 30.1596 14.404 30.1555 14.3933 30.1505ZM15.525 31.3056C15.5283 31.303 15.5317 31.3004 15.535 31.298C15.5517 31.3265 15.5686 31.3547 15.5856 31.3824L15.525 31.3056ZM15.0803 30.6506C15.1192 30.692 15.1576 30.7355 15.1952 30.7812C15.1927 30.7831 15.1902 30.7849 15.1877 30.7867C15.1681 30.8006 15.1474 30.8124 15.1261 30.822C15.0588 30.8198 14.9835 30.7807 14.9238 30.7205L14.9685 30.6769L15.0431 30.6118C15.0556 30.6245 15.068 30.6375 15.0803 30.6506ZM14.8409 30.5767C14.8534 30.6189 14.8766 30.6631 14.9102 30.7047L15.0309 30.5994C14.9986 30.5668 14.966 30.5357 14.9332 30.5058C14.904 30.5333 14.8731 30.5568 14.8409 30.5767ZM17.3051 32.9286C17.3061 32.9246 17.3072 32.9205 17.3084 32.9165C17.3572 32.9361 17.4061 32.9545 17.4552 32.9715L17.4529 32.9791L17.3923 33.1759C17.3712 33.1705 17.3511 33.1637 17.332 33.1556C17.3074 33.1121 17.2787 33.032 17.3051 32.9286ZM17.4599 32.9815L17.462 32.9738C17.4717 32.9772 17.4814 32.9804 17.4911 32.9837C17.5374 32.9991 17.5838 33.0134 17.6302 33.0266C17.629 33.0305 17.6278 33.0344 17.6264 33.0383C17.5933 33.1355 17.53 33.1822 17.493 33.2017C17.4663 33.198 17.4395 33.1911 17.4133 33.1808C17.4106 33.1802 17.408 33.1797 17.4054 33.1791L17.4376 33.0623L17.4599 32.9815ZM19.6887 33.0236C19.6876 33.0156 19.6867 33.0078 19.6861 33.0002C19.7373 32.9864 19.7873 32.972 19.8361 32.9573L19.8468 33.0005L19.6887 33.0236ZM19.8487 33.0002L19.8382 32.9566C19.8408 32.9558 19.8434 32.955 19.846 32.9542L19.8509 32.9999L19.8487 33.0002ZM19.8821 32.9953L19.8701 32.9468C19.9185 32.9318 19.9656 32.9163 20.0113 32.9006C20.022 32.9219 20.031 32.9458 20.0374 32.9726L19.8821 32.9953ZM19.8826 32.9976L20.0376 32.9737C20.0398 32.9831 20.0416 32.9929 20.0431 33.003L19.8895 33.0254L19.8826 32.9976ZM19.8511 33.0024L19.8527 33.0169L19.8493 33.0027L19.8511 33.0024ZM19.6893 33.0273L19.8474 33.003L19.854 33.0297L19.8541 33.0306L19.6943 33.054C19.6924 33.0454 19.6907 33.0365 19.6893 33.0273ZM19.695 33.0567L19.8547 33.0364L19.8766 33.2425C19.8589 33.2455 19.8414 33.2473 19.8244 33.2481C19.7908 33.2265 19.7215 33.1693 19.695 33.0567ZM19.9394 33.227L19.8911 33.0317L20.0444 33.0122C20.05 33.0565 20.0448 33.1024 20.0296 33.1442C20.0207 33.1686 20.0097 33.1885 19.9987 33.2043C19.98 33.2128 19.9602 33.2204 19.9394 33.227Z" stroke="url(#paint1_linear_335_173)"/>
</g>
<defs>
<linearGradient id="paint0_linear_335_173" x1="37.3676" y1="8.93412" x2="7.43211" y2="42.5156" gradientUnits="userSpaceOnUse">
<stop stop-color="#E3D49F"/>
<stop offset="0.5" stop-color="#E3B81E"/>
<stop offset="1" stop-color="#997C14"/>
</linearGradient>
<linearGradient id="paint1_linear_335_173" x1="32.8983" y1="14.0847" x2="13.0678" y2="36.3305" gradientUnits="userSpaceOnUse">
<stop stop-color="#E3D49F"/>
<stop offset="0.5" stop-color="#E3B81E"/>
<stop offset="1" stop-color="#997C14"/>
</linearGradient>
</defs>
</svg>
