<svg width="119" height="120" viewBox="0 0 119 120" fill="none" xmlns="http://www.w3.org/2000/svg">
<g id="CSS">
<path id="Vector 18" class="vector-6" d="M79 119H95M93 115H101" stroke="url(#paint0_linear_348_66)" stroke-width="2" stroke-linecap="round"/>
<circle id="Ellipse 5" class="vector-5" cx="114" cy="67" r="4" stroke="#356BD6" stroke-width="2"/>
<circle id="Ellipse 6" class="vector-4" cx="18" cy="110" r="4" stroke="#4F2FB9" stroke-width="2"/>
<path id="Vector 19" class="vector-3" d="M106.5 5L114 9L106 13" stroke="#3382E0" stroke-width="2" stroke-linecap="round" stroke-linejoin="round"/>
<path id="Vector 20" class="vector-2" d="M35.95 2.15574L37.3872 4.78908M39.3035 8.3002L40.7406 10.9335M39.662 5.82605L42.2953 4.38886M37.0287 7.26324L34.3953 8.70043" stroke="#3852CB" stroke-width="2" stroke-linecap="round" stroke-linejoin="round"/>
<path id="Vector 21" class="vector-1" d="M3.95001 53.1557L5.3872 55.7891M7.30345 59.3002L8.74064 61.9335M7.662 56.826L10.2953 55.3889M5.02866 58.2632L2.39532 59.7004" stroke="#453EC1" stroke-width="2" stroke-linecap="round" stroke-linejoin="round"/>
<path id="CSS_2" d="M106.5 20H23L29.5 102.5L65 113L99.5 102.5L106.5 20Z" stroke="url(#paint1_linear_348_66)" stroke-width="4" stroke-linejoin="round"/>
<path id="CSS_3" d="M87 89L91 36.5H39C39 36.5 40 45 40 45.5C40 46 41 46.5 42 46.5C43 46.5 80.5 46 80.5 46L79.5 57.5H40.5L41.5 67.5H78L77 81L65.5 84L53 80V73H41.5L43 89L65.5 96L87 89Z" stroke="url(#paint2_linear_348_66)" stroke-width="4" stroke-linejoin="round"/>
</g>
<defs>
<linearGradient id="paint0_linear_348_66" x1="102.054" y1="114.892" x2="100.617" y2="122.469" gradientUnits="userSpaceOnUse">
<stop stop-color="#3389E3"/>
<stop offset="0.40736" stop-color="#3754CC"/>
<stop offset="1" stop-color="#512DB8"/>
</linearGradient>
<linearGradient id="paint1_linear_348_66" x1="110.5" y1="17.5" x2="20.272" y2="95.1857" gradientUnits="userSpaceOnUse">
<stop stop-color="#3389E3"/>
<stop offset="0.40736" stop-color="#3754CC"/>
<stop offset="1" stop-color="#512DB8"/>
</linearGradient>
<linearGradient id="paint2_linear_348_66" x1="93.491" y1="34.9005" x2="36.0158" y2="83.069" gradientUnits="userSpaceOnUse">
<stop stop-color="#3389E3"/>
<stop offset="0.40736" stop-color="#3754CC"/>
<stop offset="1" stop-color="#512DB8"/>
</linearGradient>
</defs>
</svg>
