<svg width="38" height="49" viewBox="0 0 38 49" fill="none" xmlns="http://www.w3.org/2000/svg">
<g id="activer-logo-gc">
<path id="logo-letter-g" class="logo-letter-g" d="M12.2853 11.6651V3.98624H5.96552C1.90282 3.98624 1 4.83945 1 6.54587C1 6.54587 1.00001 34.2752 1 37.2615C0.999987 40.2477 2.54934 43.2317 5.7092 43.2317C8.86907 43.2317 10.2233 43.2317 10.2233 43.2317C12.4804 43.2317 12.2853 42.3807 12.2853 39.8211V23.6101H7.77116V21.0505H15.8965V37.2615C15.8965 39.3945 14.9937 39.8211 13.1881 39.8211H7.77116C6.41693 39.8211 4.61128 39.3945 4.61128 37.2615V4.83945C4.61128 3.55963 5.96552 1 9.57681 1H15.8965V11.6651H12.2853Z" stroke="url(#paint0_linear_299_42)" stroke-width="1.5"/>
<path id="logo-letter-c" class="logo-letter-c" d="M33.3888 15.9312V8.6789H27.069C23.0063 8.6789 22.1035 9.1055 22.1035 10.8119V43.2339C22.1035 45.7936 24.3606 47.5 26.6176 47.5H31.1317C33.3888 47.5 33.3888 46.6468 33.3888 44.0871V35.9816H37.0001V41.5275C37.0001 43.6605 36.0972 44.0871 34.2916 44.0871H28.8747C27.5204 44.0871 25.7148 43.6605 25.7148 41.5275V9.1055C25.7148 7.82568 27.069 5.26605 30.6803 5.26605H37.0001V15.9312H33.3888Z" stroke="url(#paint1_linear_299_42)" stroke-width="1.5"/>
</g>
<defs>
<linearGradient id="paint0_linear_299_42" x1="14.0345" y1="8.93882" x2="-4.85561" y2="16.6694" gradientUnits="userSpaceOnUse">
<stop offset="0.0785998" stop-color="#E3D49F"/>
<stop offset="0.581379" stop-color="#E3B81E"/>
<stop offset="0.868358" stop-color="#997C14"/>
</linearGradient>
<linearGradient id="paint1_linear_299_42" x1="35.138" y1="13.2053" x2="16.2476" y2="20.9356" gradientUnits="userSpaceOnUse">
<stop offset="0.0785998" stop-color="#E3D49F"/>
<stop offset="0.581379" stop-color="#E3B81E"/>
<stop offset="0.868358" stop-color="#997C14"/>
</linearGradient>
</defs>
</svg>
