<svg width="117" height="119" viewBox="0 0 117 119" fill="none" xmlns="http://www.w3.org/2000/svg">
<g id="Figma">
<g id="Group 16">
<path id="vector-6" class="vector-6" d="M80.6338 117.735H96.2447M94.2933 113.832H102.099" stroke="url(#paint0_linear_386_51)" stroke-width="1.95136" stroke-linecap="round"/>
<circle id="vector-5" class="vector-5" cx="111.855" cy="66.0237" r="3.90273" stroke="#B22961" stroke-width="1.95136"/>
<circle id="vector-4" class="vector-4" cx="18.1904" cy="108.954" r="3.90273" stroke="#176B2A" stroke-width="1.95136"/>
<path id="vector-3" class="vector-3" d="M104.538 5.53137L111.856 9.4341L104.05 13.3368" stroke="#DA272A" stroke-width="1.95136" stroke-linecap="round" stroke-linejoin="round"/>
<path id="vector-2" class="vector-2" d="M35.7036 2.75626L37.1058 5.32556M38.9755 8.7513L40.3777 11.3206M39.3253 6.33731L41.8946 4.93507M36.756 7.73955L34.1867 9.14179" stroke="#8D2B94" stroke-width="1.95136" stroke-linecap="round" stroke-linejoin="round"/>
<path id="vector-1" class="vector-1" d="M4.48188 52.516L5.88412 55.0853M7.75377 58.5111L9.15601 61.0804M8.1036 56.0971L10.6729 54.6948M5.5343 57.4993L2.96499 58.9016" stroke="#564187" stroke-width="1.95136" stroke-linecap="round" stroke-linejoin="round"/>
</g>
<path id="Figma_2" class="figma-logo" d="M74.78 54.8033C77.3384 54.7492 78.6827 53.8276 80.6341 52.8519C82.5854 51.8762 84.7025 49.1064 85.5125 45.0464C86.0926 42.0507 85.5083 40.3354 83.5611 37.241C81.2428 33.9359 79.374 33.1739 75.7557 32.3626H54.2907C52.4628 32.4462 51.39 32.6783 49.4123 33.3383C44.5554 36.3569 43.0755 38.7639 43.0703 44.5586C43.5293 47.3005 44.0579 48.7078 45.5095 50.9005C47.8368 53.0104 49.3775 53.931 52.8271 54.8033M74.78 54.8033H62.0961M74.78 54.8033C76.4363 54.8513 77.4697 55.02 79.6584 55.7789C82.1941 57.4148 83.3836 58.4318 84.5368 60.6573C85.5395 63.4375 85.8519 64.9494 85.5125 67.4871C84.8717 70.7192 83.9287 72.1553 81.6098 74.3169C78.4241 76.9411 76.4539 77.1517 72.8286 76.7561C69.5014 76.1342 68.1028 75.2812 65.9988 73.3412C64.8512 71.9819 64.0475 70.902 63.5596 69.4385C63.0718 67.975 63.0799 63.4648 64.5353 60.6573C65.7081 58.8874 66.4624 58.0405 67.9502 56.7546C70.1547 55.4244 71.652 54.9639 74.78 54.8033ZM62.0961 54.8033H52.8271M62.0961 54.8033V64.0722V68.9506V77.2439M62.0961 77.2439V95.7819C59.6635 97.9688 58.1703 98.7246 55.2663 99.1968C51.3084 99.4581 49.4292 98.8256 46.4852 96.7576C44.2586 94.5068 43.4652 92.9777 42.5825 89.9278C42.6075 87.1528 42.6958 85.7 43.5582 84.0737C44.278 82.1311 44.9979 81.0631 46.973 79.1953C48.6196 78.1973 49.5989 77.8305 51.3636 77.2439H54.2907M62.0961 77.2439H54.2907M52.8271 54.8033C49.3027 55.5204 47.7812 56.4699 45.5095 58.706C43.8705 61.2595 43.2467 62.9038 43.0703 66.5114C43.4567 69.1964 43.9181 70.4427 45.0217 72.3655C47.4621 75.3238 49.4444 76.436 54.2907 77.2439M23.0688 22.1179L29.4108 102.612L64.0475 112.856L97.7085 102.612L104.538 22.1179H84.2929H64.0475H23.0688Z" stroke="url(#paint1_linear_386_51)" stroke-width="3.90273" stroke-linejoin="round"/>
</g>
<defs>
<linearGradient id="paint0_linear_386_51" x1="100.263" y1="114.124" x2="99.1035" y2="120.581" gradientUnits="userSpaceOnUse">
<stop stop-color="#DA272A"/>
<stop offset="0.467648" stop-color="#752CB5"/>
<stop offset="1" stop-color="#097416"/>
</linearGradient>
<linearGradient id="paint1_linear_386_51" x1="97.572" y1="28.9021" x2="20.4342" y2="99.009" gradientUnits="userSpaceOnUse">
<stop stop-color="#DA272A"/>
<stop offset="0.467648" stop-color="#752CB5"/>
<stop offset="1" stop-color="#097416"/>
</linearGradient>
</defs>
</svg>
