<svg width="117" height="119" viewBox="0 0 117 119" fill="none" xmlns="http://www.w3.org/2000/svg">
<g id="SASS">
<g id="Group 20">
<path id="vector-6" class="vector-6" d="M80.5176 117.735H96.1285M94.1771 113.832H101.983" stroke="url(#paint0_linear_386_60)" stroke-width="1.95136" stroke-linecap="round"/>
<circle id="vector-5" class="vector-5" cx="111.739" cy="66.0237" r="3.90273" stroke="#C57991" stroke-width="1.95136"/>
<circle id="vector-4" class="vector-4" cx="18.0742" cy="108.954" r="3.90273" stroke="#7D142C" stroke-width="1.95136"/>
<path id="vector-3" class="vector-3" d="M104.422 5.53137L111.74 9.4341L103.934 13.3368" stroke="#D7A2A5" stroke-width="1.95136" stroke-linecap="round" stroke-linejoin="round"/>
<path id="vector-2" class="vector-2" d="M35.5874 2.75626L36.9896 5.32556M38.8592 8.7513L40.2615 11.3206M39.2091 6.33731L41.7784 4.93507M36.6398 7.73955L34.0705 9.14179" stroke="#B75A82" stroke-width="1.95136" stroke-linecap="round" stroke-linejoin="round"/>
<path id="vector-1" class="vector-1" d="M4.36567 52.516L5.76791 55.0853M7.63756 58.5111L9.0398 61.0804M7.98739 56.0971L10.5567 54.6948M5.41809 57.4993L2.84878 58.9016" stroke="#983056" stroke-width="1.95136" stroke-linecap="round" stroke-linejoin="round"/>
</g>
<g id="Group 15" class="sass-logo">
<path id="Sass" d="M104.422 21.1422H22.9526L29.2946 101.636L63.9313 111.881L97.5923 101.636L104.422 21.1422Z" stroke="url(#paint1_linear_386_60)" stroke-width="3.90273" stroke-linejoin="round"/>
<path id="Vector 26" d="M58.8622 77.5557C59.3669 79.0025 59.3106 80.8033 59.0972 83.5224C58.9717 85.1206 55.1441 88.6923 51.5993 90.19C49.4126 90.4891 48.6689 90.19 48.6537 88.3231C48.6338 85.8699 48.9215 84.1451 51.5993 82.189C54.7089 79.9176 56.8759 78.5285 58.8622 77.5557ZM58.8622 77.5557C58.5483 76.6561 58.0175 75.8934 57.1727 75.1319M62.17 76.2291C62.6462 76.0756 63.136 75.9307 63.6495 75.7882C66.8173 75.4668 69.0051 75.208 71.6829 76.5883C74.2701 77.9218 75.0516 78.9597 75.6997 81.3889C76.0954 83.6562 75.6847 84.9079 73.8252 86.9896C75.1921 86.3635 77.0576 86.0643 77.842 81.3889C78.4772 77.6024 74.8963 75.2548 72.2185 73.9213C69.5407 72.5878 65.0792 72.6851 62.8461 73.1212C62.1754 73.3124 61.5364 73.5053 60.9213 73.7044M62.17 76.2291C62.2222 76.436 62.2677 76.6444 62.3106 76.855C62.8461 79.4856 62.8461 83.2557 62.0428 85.656C60.9155 89.0243 57.2227 92.2776 55.0805 93.1236C52.0983 94.3013 50.4766 94.6874 47.8504 93.9237C44.9681 93.0963 44.1014 92.0568 43.8336 89.1232C43.8336 86.1894 44.8101 84.0225 47.3148 81.3889C51.2983 78.3345 54.1347 76.4946 57.1727 75.1319M62.17 76.2291C61.957 75.3849 61.6327 74.564 60.9213 73.7044M57.1727 75.1319C57.0211 74.9953 56.8595 74.8587 56.6872 74.7214C54.0093 72.5878 48.8262 69.3487 44.3692 65.387C41.1558 62.5307 40.9383 58.0722 42.2269 54.719C44.5352 48.713 47.9261 45.9055 55.0805 41.3841C63.3872 36.5773 68.0694 34.6655 76.503 33.9166C82.4282 33.575 85.297 34.1278 89.3566 36.8503C92.0344 38.6461 92.8378 43.3691 91.7666 47.2515C90.6274 51.3807 88.6813 53.5724 85.3399 56.5859C83.5655 58.1861 80.6505 59.7152 75.6997 60.8531C72.2185 61.6532 68.0263 62.0321 64.1851 60.8531C60.3438 59.6741 59.1825 56.1478 60.7039 56.3193C63.3731 58.0854 64.7206 58.9862 67.934 58.9862C73.5574 58.9862 76.4466 57.7616 80.5198 54.7191C84.8043 51.5186 87.0869 49.6518 87.7499 45.1179C88.1743 42.2156 87.7354 41.1174 84.8043 39.784C80.7876 37.9567 76.503 37.917 71.4152 39.784C55.8656 45.8657 50.6728 49.5595 47.8504 56.3193C47.047 58.2433 47.047 60.5595 48.6537 62.72C50.7394 65.5246 52.6239 67.3988 59.0972 72.0545C59.8958 72.6289 60.4823 73.174 60.9213 73.7044" stroke="url(#paint2_linear_386_60)" stroke-width="3.90273" stroke-linecap="round" stroke-linejoin="round"/>
</g>
</g>
<defs>
<linearGradient id="paint0_linear_386_60" x1="102.958" y1="113.344" x2="101.897" y2="119.062" gradientUnits="userSpaceOnUse">
<stop stop-color="#D8A3A6"/>
<stop offset="0.467648" stop-color="#AE4778"/>
<stop offset="1" stop-color="#780F24"/>
</linearGradient>
<linearGradient id="paint1_linear_386_60" x1="97.4558" y1="27.9264" x2="20.318" y2="98.0333" gradientUnits="userSpaceOnUse">
<stop stop-color="#D8A3A6"/>
<stop offset="0.467648" stop-color="#AE4778"/>
<stop offset="1" stop-color="#780F24"/>
</linearGradient>
<linearGradient id="paint2_linear_386_60" x1="87.8874" y1="38.349" x2="36.9118" y2="81.6267" gradientUnits="userSpaceOnUse">
<stop stop-color="#D8A3A6"/>
<stop offset="0.467648" stop-color="#AE4778"/>
<stop offset="1" stop-color="#780F24"/>
</linearGradient>
</defs>
</svg>
