<svg width="117" height="119" viewBox="0 0 117 119" fill="none" xmlns="http://www.w3.org/2000/svg">
<g id="React">
<g id="Group 16">
<path id="vector-6" class="vector-6" d="M80.6338 118.028H96.2447M94.2933 114.126H102.099" stroke="url(#paint0_linear_388_78)" stroke-width="1.95136" stroke-linecap="round"/>
<circle id="vector-5" class="vector-5" cx="111.855" cy="66.3174" r="3.90273" stroke="#4151C2" stroke-width="1.95136"/>
<circle id="vector-4" class="vector-4" cx="18.1904" cy="109.248" r="3.90273" stroke="#EE3919" stroke-width="1.95136"/>
<path id="vector-3" class="vector-3" d="M104.538 5.8252L111.856 9.72792L104.05 13.6306" stroke="#1C8DC4" stroke-width="1.95136" stroke-linecap="round" stroke-linejoin="round"/>
<path id="vector-2" class="vector-2" d="M35.7036 3.05021L37.1058 5.61951M38.9755 9.04525L40.3777 11.6145M39.3253 6.63126L41.8946 5.22902M36.756 8.0335L34.1867 9.43574" stroke="#5038C1" stroke-width="1.95136" stroke-linecap="round" stroke-linejoin="round"/>
<path id="vector-1" class="vector-1" d="M4.48188 52.81L5.88412 55.3793M7.75377 58.805L9.15601 61.3743M8.1036 56.391L10.6729 54.9888M5.5343 57.7933L2.96499 59.1955" stroke="#B32D5F" stroke-width="1.95136" stroke-linecap="round" stroke-linejoin="round"/>
</g>
<path id="React_2" class="react-logo" d="M24.0444 22.4119L30.3864 102.906L65.0231 113.15L98.6841 102.906L105.514 22.4119H85.2685H65.0231H24.0444ZM96.7327 65.3419C96.7327 71.6838 85.0245 78.0257 75.7556 79.4892C66.4866 80.9528 61.6082 80.4649 55.7541 79.4892C49.9 78.5136 32.8256 73.1473 32.8256 65.3419C32.8256 57.5364 48.9243 53.6337 55.7541 52.1702C62.5839 50.7066 69.9015 50.7066 75.7556 52.1702C81.6097 53.6337 96.7327 58.9999 96.7327 65.3419ZM65.5109 58.9999C61.1203 58.9999 58.6811 61.4391 58.6811 65.3419C58.6811 69.2446 61.1203 72.1716 65.5109 72.1716C69.9015 72.1716 72.3407 69.2446 72.3407 65.3419C72.3407 61.927 69.9015 58.9999 65.5109 58.9999ZM46.973 94.1245C52.827 97.5394 65.9681 86.1636 71.365 80.4649C76.7803 74.2689 78.8302 70.3316 81.6097 62.9027C84.6744 53.324 92.83 38.9985 85.0245 35.0957C78.6826 31.9248 62.096 44.3341 57.2176 51.1945C52.6555 57.61 50.3212 61.6109 46.973 70.2203C45.0216 77.05 41.1189 90.7096 46.973 94.1245ZM83.0732 95.1001C90.6347 91.1974 84.6394 75.8766 82.5853 69.2446C79.594 60.7124 76.734 57.1925 71.365 50.2188C65.3868 44.1616 55.2662 30.2173 48.4365 33.6322C41.6067 37.0471 45.0817 51.3106 46.973 58.9999C50.0527 67.5736 52.1614 72.2348 58.6811 79.4892C62.4489 84.1061 76.4568 98.515 83.0732 95.1001Z" stroke="url(#paint1_linear_388_78)" stroke-width="3.90273" stroke-linejoin="round"/>
</g>
<defs>
<linearGradient id="paint0_linear_388_78" x1="100.263" y1="114.418" x2="99.1035" y2="120.875" gradientUnits="userSpaceOnUse">
<stop stop-color="#1D8DC5"/>
<stop offset="0.467648" stop-color="#611DC0"/>
<stop offset="1" stop-color="#FB3C0A"/>
</linearGradient>
<linearGradient id="paint1_linear_388_78" x1="93.8057" y1="30.2173" x2="20.5845" y2="96.6984" gradientUnits="userSpaceOnUse">
<stop stop-color="#1D8DC5"/>
<stop offset="0.467648" stop-color="#611DC0"/>
<stop offset="1" stop-color="#FB3C0A"/>
</linearGradient>
</defs>
</svg>
