<svg width="48" height="48" viewBox="0 0 48 48" fill="none" xmlns="http://www.w3.org/2000/svg">
<g id="whatsaap" class="whatsaap">
<circle id="Ellipse 3" cx="23.9653" cy="23.9018" r="22.6435" stroke="url(#paint0_linear_335_170)" stroke-width="2"/>
<path id="Vector" d="M33.8062 14.0687C31.1875 11.4437 27.7 10 23.9937 10C16.3437 10 10.1187 16.225 10.1187 23.875C10.1187 26.3187 10.7563 28.7062 11.9688 30.8125L10 38L17.3562 36.0688C19.3812 37.175 21.6625 37.7563 23.9875 37.7563H23.9937C31.6375 37.7563 38 31.5313 38 23.8813C38 20.175 36.425 16.6937 33.8062 14.0687ZM23.9937 35.4188C21.9187 35.4188 19.8875 34.8625 18.1187 33.8125L17.7 33.5625L13.3375 34.7062L14.5 30.45L14.225 30.0125C13.0687 28.175 12.4625 26.0563 12.4625 23.875C12.4625 17.5188 17.6375 12.3438 24 12.3438C27.0812 12.3438 29.975 13.5437 32.15 15.725C34.325 17.9062 35.6625 20.8 35.6562 23.8813C35.6562 30.2438 30.35 35.4188 23.9937 35.4188ZM30.3188 26.7812C29.975 26.6063 28.2688 25.7687 27.95 25.6562C27.6313 25.5375 27.4 25.4812 27.1688 25.8312C26.9375 26.1812 26.275 26.9563 26.0688 27.1938C25.8688 27.425 25.6625 27.4562 25.3188 27.2812C23.2813 26.2625 21.9438 25.4625 20.6 23.1562C20.2438 22.5437 20.9562 22.5875 21.6187 21.2625C21.7312 21.0312 21.675 20.8312 21.5875 20.6562C21.5 20.4813 20.8063 18.775 20.5188 18.0813C20.2375 17.4063 19.95 17.5 19.7375 17.4875C19.5375 17.475 19.3062 17.475 19.075 17.475C18.8437 17.475 18.4687 17.5625 18.15 17.9062C17.8312 18.2562 16.9375 19.0938 16.9375 20.8C16.9375 22.5063 18.1813 24.1563 18.35 24.3875C18.525 24.6188 20.7937 28.1187 24.275 29.625C26.475 30.575 27.3375 30.6562 28.4375 30.4937C29.1062 30.3937 30.4875 29.6562 30.775 28.8438C31.0625 28.0312 31.0625 27.3375 30.975 27.1938C30.8938 27.0375 30.6625 26.95 30.3188 26.7812Z" stroke="url(#paint1_linear_335_170)"/>
</g>
<defs>
<linearGradient id="paint0_linear_335_170" x1="37.3978" y1="8.93412" x2="7.46239" y2="42.5156" gradientUnits="userSpaceOnUse">
<stop stop-color="#E3D49F"/>
<stop offset="0.5" stop-color="#E3B81E"/>
<stop offset="1" stop-color="#997C14"/>
</linearGradient>
<linearGradient id="paint1_linear_335_170" x1="32.3051" y1="14.7458" x2="13.7966" y2="35.5085" gradientUnits="userSpaceOnUse">
<stop stop-color="#E3D49F"/>
<stop offset="0.5" stop-color="#E3B81E"/>
<stop offset="1" stop-color="#997C14"/>
</linearGradient>
</defs>
</svg>
